# xmcd
#
# Track frame offsets:
#	150
#	15393
#	30611
#	71796
#
# Disc length: 1228 seconds
#
# Revision: 11
# Processed by: cddbd v1.5.2PL0 Copyright (c) Steve Scherf et al.
# Submitted via: audiograbber 1.83.01
#
DISCID=2a04ca04
DTITLE=Shania Twain - Ka-ching!
DYEAR=2003
DGENRE=Country
TTITLE0=Ka - ching! (Red version)
TTITLE1=Ka - ching! (Sowatt Hip Hop mix)
TTITLE2=Ka - ching! (Sowatt Extended Lounge mix)
TTITLE3=I'm gonna getcha good! (Sowatt Dance mix)
EXTD=
EXTT0=
EXTT1=
EXTT2=
EXTT3=
PLAYORDER=
